<?xml version="1.0" encoding="UTF-8" standalone="no"?>
<svg
   width="92.789455mm"
   height="37.141487mm"
   viewBox="0 0 92.789455 37.141487"
   version="2.0"
   id="svg1"
   sodipodi:docname="distillembed_project_splash.svg"
   standalone="no"
   inkscape:version="1.5-dev (23acc5f795, 2026-06-29)"
   inkscape:export-filename="distillembed_project_splash.png"
   inkscape:export-xdpi="96"
   inkscape:export-ydpi="96"
   xmlns:inkscape="http://www.inkscape.org/namespaces/inkscape"
   xmlns:sodipodi="http://sodipodi.sourceforge.net/DTD/sodipodi-0.dtd"
   xmlns="http://www.w3.org/2000/svg"
   xmlns:svg="http://www.w3.org/2000/svg">
  <sodipodi:namedview
     id="namedview1"
     pagecolor="#ffffff"
     bordercolor="#000000"
     borderopacity="0.25"
     inkscape:showpageshadow="2"
     inkscape:pageopacity="0.0"
     inkscape:pagecheckerboard="0"
     inkscape:deskcolor="#d1d1d1"
     inkscape:document-units="mm"
     showgrid="false"
     showguides="true"
     inkscape:zoom="1"
     inkscape:cx="315.5"
     inkscape:cy="19.5"
     inkscape:window-width="1869"
     inkscape:window-height="1168"
     inkscape:window-maximized="1"
     inkscape:current-layer="svg1">
    <sodipodi:guide
       position="0,37.141487"
       orientation="1,0"
       id="guide2"
       inkscape:locked="false" />
    <sodipodi:guide
       position="0,37.141487"
       orientation="0,-1"
       id="guide3"
       inkscape:locked="false" />
    <sodipodi:guide
       position="0,0"
       orientation="0,-1"
       id="guide4"
       inkscape:locked="false" />
    <sodipodi:guide
       position="92.789455,37.141487"
       orientation="1,0"
       id="guide5"
       inkscape:locked="false" />
    <sodipodi:guide
       position="0,37.141487"
       orientation="0.70710678,-0.70710678"
       id="guide6"
       inkscape:locked="false" />
    <sodipodi:guide
       position="92.789455,37.141487"
       orientation="-0.70710678,-0.70710678"
       id="guide7"
       inkscape:locked="false" />
    <sodipodi:guide
       position="-18.326172,37.141487"
       orientation="1,0"
       id="guide8"
       inkscape:locked="false" />
    <sodipodi:guide
       position="0,55.467659"
       orientation="0,-1"
       id="guide9"
       inkscape:locked="false" />
    <sodipodi:guide
       position="-18.326172,55.467659"
       orientation="-0.70710678,-0.70710678"
       id="guide10"
       inkscape:locked="false" />
    <sodipodi:guide
       position="0,-18.32531"
       orientation="0,-1"
       id="guide11"
       inkscape:locked="false" />
    <sodipodi:guide
       position="111.11523,37.141487"
       orientation="1,0"
       id="guide12"
       inkscape:locked="false" />
  </sodipodi:namedview>
  <defs
     id="defs1">
    <inkscape:path-effect
       effect="fillet_chamfer"
       id="path-effect124"
       is_visible="true"
       lpeversion="1"
       nodesatellites_param="F,0,0,1,0,1.3229167,0,1 @ F,0,1,1,0,0.26458333,0,1 @ F,0,0,1,0,1.3229167,0,1 @ F,0,0,1,0,1.3229167,0,1 @ F,0,1,1,0,0.26458333,0,1 @ F,0,0,1,0,1.3229167,0,1 @ F,0,0,1,0,1.3229167,0,1"
       radius="1"
       unit="px"
       method="auto"
       mode="F"
       chamfer_steps="1"
       flexible="false"
       use_knot_distance="true"
       apply_no_radius="true"
       apply_with_radius="true"
       only_selected="true"
       hide_knots="false" />
    <inkscape:path-effect
       effect="spiro"
       id="path-effect107"
       is_visible="true"
       lpeversion="1" />
    <inkscape:path-effect
       effect="spiro"
       id="path-effect105"
       is_visible="true"
       lpeversion="1" />
    <inkscape:path-effect
       effect="spiro"
       id="path-effect103"
       is_visible="true"
       lpeversion="1" />
    <inkscape:path-effect
       effect="spiro"
       id="path-effect101"
       is_visible="true"
       lpeversion="1" />
    <inkscape:path-effect
       effect="spiro"
       id="path-effect99"
       is_visible="true"
       lpeversion="1" />
    <inkscape:path-effect
       effect="spiro"
       id="path-effect97"
       is_visible="true"
       lpeversion="1" />
    <inkscape:path-effect
       effect="spiro"
       id="path-effect95"
       is_visible="true"
       lpeversion="1" />
    <inkscape:path-effect
       effect="spiro"
       id="path-effect93"
       is_visible="true"
       lpeversion="1" />
    <inkscape:path-effect
       effect="spiro"
       id="path-effect91"
       is_visible="true"
       lpeversion="1" />
    <inkscape:path-effect
       effect="spiro"
       id="path-effect89"
       is_visible="true"
       lpeversion="1" />
    <inkscape:path-effect
       effect="spiro"
       id="path-effect87"
       is_visible="true"
       lpeversion="1" />
    <inkscape:path-effect
       effect="spiro"
       id="path-effect85"
       is_visible="true"
       lpeversion="1" />
    <inkscape:path-effect
       effect="spiro"
       id="path-effect83"
       is_visible="true"
       lpeversion="1" />
    <inkscape:path-effect
       effect="spiro"
       id="path-effect76"
       is_visible="true"
       lpeversion="1" />
    <inkscape:path-effect
       effect="spiro"
       id="path-effect74"
       is_visible="true"
       lpeversion="1" />
    <inkscape:path-effect
       effect="spiro"
       id="path-effect72"
       is_visible="true"
       lpeversion="1" />
    <inkscape:path-effect
       effect="spiro"
       id="path-effect70"
       is_visible="true"
       lpeversion="1" />
    <inkscape:path-effect
       effect="spiro"
       id="path-effect68"
       is_visible="true"
       lpeversion="1" />
    <inkscape:path-effect
       effect="spiro"
       id="path-effect66"
       is_visible="true"
       lpeversion="1" />
    <inkscape:path-effect
       effect="spiro"
       id="path-effect62"
       is_visible="true"
       lpeversion="1" />
    <inkscape:path-effect
       effect="spiro"
       id="path-effect55"
       is_visible="true"
       lpeversion="1" />
    <inkscape:path-effect
       effect="spiro"
       id="path-effect53"
       is_visible="true"
       lpeversion="1" />
    <inkscape:path-effect
       effect="spiro"
       id="path-effect51"
       is_visible="true"
       lpeversion="1" />
    <inkscape:path-effect
       effect="spiro"
       id="path-effect49"
       is_visible="true"
       lpeversion="1" />
    <inkscape:path-effect
       effect="spiro"
       id="path-effect47"
       is_visible="true"
       lpeversion="1" />
    <inkscape:path-effect
       effect="spiro"
       id="path-effect45"
       is_visible="true"
       lpeversion="1" />
    <inkscape:path-effect
       effect="spiro"
       id="path-effect43"
       is_visible="true"
       lpeversion="1" />
    <inkscape:path-effect
       effect="spiro"
       id="path-effect36"
       is_visible="true"
       lpeversion="1" />
    <inkscape:path-effect
       effect="spiro"
       id="path-effect34"
       is_visible="true"
       lpeversion="1" />
    <inkscape:path-effect
       effect="spiro"
       id="path-effect32"
       is_visible="true"
       lpeversion="1" />
    <inkscape:path-effect
       effect="spiro"
       id="path-effect30"
       is_visible="true"
       lpeversion="1" />
    <inkscape:path-effect
       effect="spiro"
       id="path-effect27"
       is_visible="true"
       lpeversion="1" />
    <inkscape:path-effect
       effect="spiro"
       id="path-effect25"
       is_visible="true"
       lpeversion="1" />
    <inkscape:path-effect
       effect="spiro"
       id="path-effect23"
       is_visible="true"
       lpeversion="1" />
    <inkscape:path-effect
       effect="skeletal"
       id="path-effect21"
       is_visible="true"
       lpeversion="1"
       pattern="#path8"
       copytype="single_stretched"
       prop_scale="-1.2"
       scale_y_rel="true"
       spacing="0"
       normal_offset="0.9"
       tang_offset="0"
       prop_units="false"
       vertical_pattern="false"
       hide_knot="false"
       fuse_tolerance="9" />
    <inkscape:path-effect
       effect="skeletal"
       id="path-effect19"
       is_visible="true"
       lpeversion="1"
       pattern="#path7"
       copytype="single_stretched"
       prop_scale="-1.2"
       scale_y_rel="true"
       spacing="0"
       normal_offset="0.9"
       tang_offset="0"
       prop_units="false"
       vertical_pattern="false"
       hide_knot="false"
       fuse_tolerance="9" />
    <inkscape:path-effect
       effect="spiro"
       id="path-effect16"
       is_visible="true"
       lpeversion="1" />
    <inkscape:path-effect
       effect="spiro"
       id="path-effect10"
       is_visible="true"
       lpeversion="1" />
    <inkscape:path-effect
       effect="spiro"
       id="path-effect8"
       is_visible="true"
       lpeversion="1" />
    <inkscape:path-effect
       effect="skeletal"
       id="path-effect1"
       is_visible="true"
       lpeversion="1"
       pattern="#path17"
       copytype="single_stretched"
       prop_scale="-1.2"
       scale_y_rel="true"
       spacing="0"
       normal_offset="0.9"
       tang_offset="0"
       prop_units="false"
       vertical_pattern="false"
       hide_knot="false"
       fuse_tolerance="9" />
    <inkscape:path-effect
       effect="spiro"
       id="path-effect17"
       is_visible="true"
       lpeversion="1" />
    <inkscape:path-effect
       effect="spiro"
       id="path-effect14"
       is_visible="true"
       lpeversion="1" />
    <inkscape:path-effect
       effect="spiro"
       id="path-effect11"
       is_visible="true"
       lpeversion="1" />
    <inkscape:path-effect
       effect="spiro"
       id="path-effect6"
       is_visible="true"
       lpeversion="1" />
    <inkscape:path-effect
       effect="fillet_chamfer"
       id="path-effect15"
       is_visible="true"
       lpeversion="1"
       nodesatellites_param="F,0,0,1,0,0,0,1 @ F,0,0,1,0,0.89442719,0,1 @ F,0,0,1,0,0,0,1 @ F,0,0,1,0,0,0,1"
       radius="0"
       unit="px"
       method="auto"
       mode="F"
       chamfer_steps="1"
       flexible="false"
       use_knot_distance="true"
       apply_no_radius="true"
       apply_with_radius="true"
       only_selected="false"
       hide_knots="false" />
    <inkscape:path-effect
       effect="fillet_chamfer"
       id="path-effect13"
       is_visible="true"
       lpeversion="1"
       nodesatellites_param="F,0,0,1,0,0.52916667,0,1 @ F,0,0,1,0,0.52916667,0,1 @ F,0,0,1,0,0.52916667,0,1 @ F,0,0,1,0,0.52916667,0,1 @ F,0,0,1,0,0.52916667,0,1 @ F,0,0,1,0,0.52916667,0,1 @ F,0,0,1,0,0.52916667,0,1"
       radius="2"
       unit="px"
       method="auto"
       mode="F"
       chamfer_steps="1"
       flexible="false"
       use_knot_distance="true"
       apply_no_radius="true"
       apply_with_radius="true"
       only_selected="false"
       hide_knots="false" />
    <inkscape:path-effect
       effect="fillet_chamfer"
       id="path-effect64"
       is_visible="true"
       lpeversion="1"
       nodesatellites_param="F,0,0,1,0,0.52916667,0,1 @ F,0,0,1,0,0.52916667,0,1 @ F,0,0,1,0,0.52916667,0,1 @ F,0,0,1,0,0.52916667,0,1 @ F,0,0,1,0,0.52916667,0,1 @ F,0,0,1,0,0.52916667,0,1 @ F,0,0,1,0,0.52916667,0,1"
       radius="2"
       unit="px"
       method="auto"
       mode="F"
       chamfer_steps="1"
       flexible="false"
       use_knot_distance="true"
       apply_no_radius="true"
       apply_with_radius="true"
       only_selected="false"
       hide_knots="false" />
    <inkscape:path-effect
       effect="fillet_chamfer"
       id="path-effect63"
       is_visible="true"
       lpeversion="1"
       nodesatellites_param="F,0,0,1,0,0,0,1 @ F,0,0,1,0,0.89442719,0,1 @ F,0,0,1,0,0,0,1 @ F,0,0,1,0,0,0,1"
       radius="0"
       unit="px"
       method="auto"
       mode="F"
       chamfer_steps="1"
       flexible="false"
       use_knot_distance="true"
       apply_no_radius="true"
       apply_with_radius="true"
       only_selected="false"
       hide_knots="false" />
    <inkscape:path-effect
       effect="fillet_chamfer"
       id="path-effect64-7"
       is_visible="true"
       lpeversion="1"
       nodesatellites_param="F,0,0,1,0,0.52916667,0,1 @ F,0,0,1,0,0.52916667,0,1 @ F,0,0,1,0,0.52916667,0,1 @ F,0,0,1,0,0.52916667,0,1 @ F,0,0,1,0,0.52916667,0,1 @ F,0,0,1,0,0.52916667,0,1 @ F,0,0,1,0,0.52916667,0,1"
       radius="2"
       unit="px"
       method="auto"
       mode="F"
       chamfer_steps="1"
       flexible="false"
       use_knot_distance="true"
       apply_no_radius="true"
       apply_with_radius="true"
       only_selected="false"
       hide_knots="false" />
    <inkscape:path-effect
       effect="fillet_chamfer"
       id="path-effect63-5"
       is_visible="true"
       lpeversion="1"
       nodesatellites_param="F,0,0,1,0,0,0,1 @ F,0,0,1,0,0.89442719,0,1 @ F,0,0,1,0,0,0,1 @ F,0,0,1,0,0,0,1"
       radius="0"
       unit="px"
       method="auto"
       mode="F"
       chamfer_steps="1"
       flexible="false"
       use_knot_distance="true"
       apply_no_radius="true"
       apply_with_radius="true"
       only_selected="false"
       hide_knots="false" />
    <inkscape:path-effect
       effect="fillet_chamfer"
       id="path-effect64-7-0"
       is_visible="true"
       lpeversion="1"
       nodesatellites_param="F,0,0,1,0,0.52916667,0,1 @ F,0,0,1,0,0.52916667,0,1 @ F,0,0,1,0,0.52916667,0,1 @ F,0,0,1,0,0.52916667,0,1 @ F,0,0,1,0,0.52916667,0,1 @ F,0,0,1,0,0.52916667,0,1 @ F,0,0,1,0,0.52916667,0,1"
       radius="2"
       unit="px"
       method="auto"
       mode="F"
       chamfer_steps="1"
       flexible="false"
       use_knot_distance="true"
       apply_no_radius="true"
       apply_with_radius="true"
       only_selected="false"
       hide_knots="false" />
    <inkscape:path-effect
       effect="fillet_chamfer"
       id="path-effect63-5-9"
       is_visible="true"
       lpeversion="1"
       nodesatellites_param="F,0,0,1,0,0,0,1 @ F,0,0,1,0,0.89442719,0,1 @ F,0,0,1,0,0,0,1 @ F,0,0,1,0,0,0,1"
       radius="0"
       unit="px"
       method="auto"
       mode="F"
       chamfer_steps="1"
       flexible="false"
       use_knot_distance="true"
       apply_no_radius="true"
       apply_with_radius="true"
       only_selected="false"
       hide_knots="false" />
    <inkscape:path-effect
       effect="fillet_chamfer"
       id="path-effect64-7-0-1"
       is_visible="true"
       lpeversion="1"
       nodesatellites_param="F,0,0,1,0,0.52916667,0,1 @ F,0,0,1,0,0.52916667,0,1 @ F,0,0,1,0,0.52916667,0,1 @ F,0,0,1,0,0.52916667,0,1 @ F,0,0,1,0,0.52916667,0,1 @ F,0,0,1,0,0.52916667,0,1 @ F,0,0,1,0,0.52916667,0,1"
       radius="2"
       unit="px"
       method="auto"
       mode="F"
       chamfer_steps="1"
       flexible="false"
       use_knot_distance="true"
       apply_no_radius="true"
       apply_with_radius="true"
       only_selected="false"
       hide_knots="false" />
    <inkscape:path-effect
       effect="fillet_chamfer"
       id="path-effect63-5-9-8"
       is_visible="true"
       lpeversion="1"
       nodesatellites_param="F,0,0,1,0,0,0,1 @ F,0,0,1,0,0.89442719,0,1 @ F,0,0,1,0,0,0,1 @ F,0,0,1,0,0,0,1"
       radius="0"
       unit="px"
       method="auto"
       mode="F"
       chamfer_steps="1"
       flexible="false"
       use_knot_distance="true"
       apply_no_radius="true"
       apply_with_radius="true"
       only_selected="false"
       hide_knots="false" />
    <inkscape:path-effect
       effect="fillet_chamfer"
       id="path-effect64-7-0-1-7"
       is_visible="true"
       lpeversion="1"
       nodesatellites_param="F,0,0,1,0,0.52916667,0,1 @ F,0,0,1,0,0.52916667,0,1 @ F,0,0,1,0,0.52916667,0,1 @ F,0,0,1,0,0.52916667,0,1 @ F,0,0,1,0,0.52916667,0,1 @ F,0,0,1,0,0.52916667,0,1 @ F,0,0,1,0,0.52916667,0,1"
       radius="2"
       unit="px"
       method="auto"
       mode="F"
       chamfer_steps="1"
       flexible="false"
       use_knot_distance="true"
       apply_no_radius="true"
       apply_with_radius="true"
       only_selected="false"
       hide_knots="false" />
    <inkscape:path-effect
       effect="fillet_chamfer"
       id="path-effect63-5-9-8-5"
       is_visible="true"
       lpeversion="1"
       nodesatellites_param="F,0,0,1,0,0,0,1 @ F,0,0,1,0,0.89442719,0,1 @ F,0,0,1,0,0,0,1 @ F,0,0,1,0,0,0,1"
       radius="0"
       unit="px"
       method="auto"
       mode="F"
       chamfer_steps="1"
       flexible="false"
       use_knot_distance="true"
       apply_no_radius="true"
       apply_with_radius="true"
       only_selected="false"
       hide_knots="false" />
    <inkscape:path-effect
       effect="fillet_chamfer"
       id="path-effect64-7-0-1-7-3"
       is_visible="true"
       lpeversion="1"
       nodesatellites_param="F,0,0,1,0,0.52916667,0,1 @ F,0,0,1,0,0.52916667,0,1 @ F,0,0,1,0,0.52916667,0,1 @ F,0,0,1,0,0.52916667,0,1 @ F,0,0,1,0,0.52916667,0,1 @ F,0,0,1,0,0.52916667,0,1 @ F,0,0,1,0,0.52916667,0,1"
       radius="2"
       unit="px"
       method="auto"
       mode="F"
       chamfer_steps="1"
       flexible="false"
       use_knot_distance="true"
       apply_no_radius="true"
       apply_with_radius="true"
       only_selected="false"
       hide_knots="false" />
    <inkscape:path-effect
       effect="fillet_chamfer"
       id="path-effect63-5-9-8-5-6"
       is_visible="true"
       lpeversion="1"
       nodesatellites_param="F,0,0,1,0,0,0,1 @ F,0,0,1,0,0.89442719,0,1 @ F,0,0,1,0,0,0,1 @ F,0,0,1,0,0,0,1"
       radius="0"
       unit="px"
       method="auto"
       mode="F"
       chamfer_steps="1"
       flexible="false"
       use_knot_distance="true"
       apply_no_radius="true"
       apply_with_radius="true"
       only_selected="false"
       hide_knots="false" />
    <inkscape:path-effect
       effect="fillet_chamfer"
       id="path-effect64-7-0-1-7-3-4"
       is_visible="true"
       lpeversion="1"
       nodesatellites_param="F,0,0,1,0,0.52916667,0,1 @ F,0,0,1,0,0.52916667,0,1 @ F,0,0,1,0,0.52916667,0,1 @ F,0,0,1,0,0.52916667,0,1 @ F,0,0,1,0,0.52916667,0,1 @ F,0,0,1,0,0.52916667,0,1 @ F,0,0,1,0,0.52916667,0,1"
       radius="2"
       unit="px"
       method="auto"
       mode="F"
       chamfer_steps="1"
       flexible="false"
       use_knot_distance="true"
       apply_no_radius="true"
       apply_with_radius="true"
       only_selected="false"
       hide_knots="false" />
    <inkscape:path-effect
       effect="fillet_chamfer"
       id="path-effect63-5-9-8-5-6-7"
       is_visible="true"
       lpeversion="1"
       nodesatellites_param="F,0,0,1,0,0,0,1 @ F,0,0,1,0,0.89442719,0,1 @ F,0,0,1,0,0,0,1 @ F,0,0,1,0,0,0,1"
       radius="0"
       unit="px"
       method="auto"
       mode="F"
       chamfer_steps="1"
       flexible="false"
       use_knot_distance="true"
       apply_no_radius="true"
       apply_with_radius="true"
       only_selected="false"
       hide_knots="false" />
    <clipPath
       id="clip0_1276_6209">
      <rect
         width="24"
         height="24"
         fill="white"
         id="rect5"
         x="0"
         y="0" />
    </clipPath>
  </defs>
  <path
     id="rect123"
     style="fill:none;stroke:#cccccc;stroke-width:0.806516;stroke-linecap:round;stroke-linejoin:round;paint-order:fill stroke markers"
     d="m 53.432397,16.953487 v 4.417302 a 0.26458333,0.26458333 135 0 1 -0.264583,0.264583 l -8.517826,0 a 1.3229167,1.3229167 135 0 0 -1.322917,1.322917 v 12.877249 a 1.3229167,1.3229167 45 0 0 1.322917,1.322917 h 8.517826 a 0.26458333,0.26458333 45 0 1 0.264583,0.264583 v 4.417302 a 0.76379375,0.76379375 30.000242 0 0 1.145685,0.661468 L 76.130735,30.058621 a 0.76378578,0.76378578 90.000466 0 0 1.1e-5,-1.322916 L 54.578071,16.292037 a 0.76377941,0.76377941 150.00022 0 0 -1.145674,0.66145 z"
     inkscape:path-effect="#path-effect124"
     inkscape:original-d="m 53.432397,15.63057 v 6.004802 H 43.327071 v 15.523083 h 10.105326 v 6.004802 L 77.27642,29.397172 Z"
     transform="translate(-13.945197,-5.3319136)" />
  <path
     id="rect124"
     style="fill:#f9f9f9;stroke:none;stroke-width:0.806516;stroke-linecap:round;stroke-linejoin:round;paint-order:fill stroke markers"
     sodipodi:type="inkscape:offset"
     inkscape:radius="18.326052"
     inkscape:original="M 0 0 L 0 37.140625 L 92.789062 37.140625 L 92.789062 0 L 0 0 z "
     d="M 0,-18.326172 A 18.327884,18.327884 0 0 0 -18.326172,0 V 37.140625 A 18.327884,18.327884 0 0 0 0,55.466797 H 92.789062 A 18.327884,18.327884 0 0 0 111.11523,37.140625 V 0 A 18.327884,18.327884 0 0 0 92.789062,-18.326172 Z"
     transform="translate(0,-7.9375004)" />
  <g
     transform="matrix(0.5,0,0,0.5,-257.09324,-315.36999)"
     id="g1"
     style="stroke-width:0.5">
    <g
       id="g43"
       style="fill:none;stroke-width:0.600905"
       transform="matrix(2.1270987,0,0,2.1270987,533.00236,656.1991)">
      <path
         d="M 4.31802,20.5355 C 5.63604,22 7.75736,22 12,22 c 4.2426,0 6.364,0 7.682,-1.4645 C 21,19.0711 21,16.714 21,12 21,7.28595 21,4.92893 19.682,3.46447 18.364,2 16.2426,2 12,2 7.75736,2 5.63604,2 4.31802,3.46447 3,4.92893 3,7.28595 3,12 c 0,4.714 0,7.0711 1.31802,8.5355 z"
         stroke="#1c274c"
         stroke-width="0.901355"
         id="path1-74" />
      <path
         d="M 7,8 C 7,7.53501 7,7.30252 7.05111,7.11177 7.18981,6.59413 7.59413,6.18981 8.11177,6.05111 8.30252,6 8.53501,6 9,6 h 6 c 0.465,0 0.6975,0 0.8882,0.05111 0.5177,0.1387 0.922,0.54302 1.0607,1.06066 C 17,7.30252 17,7.53501 17,8 17,8.46499 17,8.69748 16.9489,8.88823 16.8102,9.40587 16.4059,9.81019 15.8882,9.94889 15.6975,10 15.465,10 15,10 H 9 C 8.53501,10 8.30252,10 8.11177,9.94889 7.59413,9.81019 7.18981,9.40587 7.05111,8.88823 7,8.69748 7,8.46499 7,8 Z"
         stroke="#1c274c"
         stroke-width="0.901355"
         id="path2-18" />
      <path
         d="m 8.5,14 v 3 M 7,15.5 h 3"
         stroke="#1c274c"
         stroke-width="0.901355"
         stroke-linecap="round"
         stroke-linejoin="round"
         id="path3-59" />
      <path
         d="m 16.3333,13.8333 c 0,0.4603 -0.3731,0.8334 -0.8333,0.8334 -0.4602,0 -0.8333,-0.3731 -0.8333,-0.8334 C 14.6667,13.3731 15.0398,13 15.5,13 c 0.4602,0 0.8333,0.3731 0.8333,0.8333 z"
         fill="#1c274c"
         id="path4-75"
         style="stroke-width:0.600905" />
      <path
         d="M 16.3333,17.1667 C 16.3333,17.6269 15.9602,18 15.5,18 c -0.4602,0 -0.8333,-0.3731 -0.8333,-0.8333 0,-0.4603 0.3731,-0.8334 0.8333,-0.8334 0.4602,0 0.8333,0.3731 0.8333,0.8334 z"
         fill="#1c274c"
         id="path5-3"
         style="stroke-width:0.600905" />
      <path
         d="m 14.6667,15.5 c 0,0.4602 -0.3731,0.8333 -0.8334,0.8333 C 13.3731,16.3333 13,15.9602 13,15.5 c 0,-0.4602 0.3731,-0.8333 0.8333,-0.8333 0.4603,0 0.8334,0.3731 0.8334,0.8333 z"
         fill="#1c274c"
         id="path6-88"
         style="stroke-width:0.600905" />
      <path
         d="m 18,15.5 c 0,0.4602 -0.3731,0.8333 -0.8333,0.8333 -0.4603,0 -0.8334,-0.3731 -0.8334,-0.8333 0,-0.4602 0.3731,-0.8333 0.8334,-0.8333 0.4602,0 0.8333,0.3731 0.8333,0.8333 z"
         fill="#1c274c"
         id="path7-3"
         style="stroke-width:0.600905" />
    </g>
  </g>
  <g
     id="g5"
     transform="matrix(0.55121525,0,0,0.55121525,37.516408,17.482134)"
     style="fill:#ffffff">
    <path
       d="m 3.84453,7.92226 c -1.12604,-1.12603 -1.12604,-2.9517 0,-4.07773 1.12603,-1.12604 2.9517,-1.12604 4.07773,0 L 20.1555,16.0777 c 1.126,1.1261 1.126,2.9517 0,4.0778 -1.1261,1.126 -2.9517,1.126 -4.0778,0 z"
       stroke="#1c274c"
       stroke-width="1.5"
       id="path1"
       style="fill:#ffffff" />
    <path
       d="M 6,10 10,6"
       stroke="#1c274c"
       stroke-width="1.5"
       stroke-linecap="round"
       id="path2"
       style="fill:#ffffff" />
    <path
       d="m 16.1,2.30719 c 0.161,-0.40959 0.7385,-0.40959 0.8994,0 l 0.4304,1.09528 c 0.0492,0.12505 0.1478,0.22404 0.2724,0.27336 l 1.0912,0.43197 c 0.4081,0.16154 0.4081,0.7412 0,0.90274 L 17.7022,5.44252 C 17.5776,5.49184 17.479,5.59082 17.4298,5.71587 L 16.9995,6.81115 C 16.8385,7.22074 16.261,7.22074 16.1,6.81116 L 15.6697,5.71587 C 15.6205,5.59082 15.5219,5.49184 15.3973,5.44252 L 14.3061,5.01054 C 13.898,4.849 13.898,4.26934 14.3061,4.1078 l 1.0912,-0.43197 c 0.1246,-0.04932 0.2232,-0.14831 0.2724,-0.27336 z"
       stroke="#1c274c"
       id="path3"
       style="fill:#ffffff" />
    <path
       d="m 19.9672,9.12945 c 0.1609,-0.40958 0.7385,-0.40958 0.8994,0 l 0.1569,0.39935 c 0.0492,0.12505 0.1478,0.22404 0.2724,0.27335 l 0.3978,0.1575 c 0.4081,0.16155 0.4081,0.74125 0,0.90275 l -0.3978,0.1575 c -0.1246,0.0493 -0.2232,0.1483 -0.2724,0.2733 l -0.1569,0.3994 c -0.1609,0.4096 -0.7385,0.4096 -0.8994,0 l -0.1569,-0.3994 c -0.0492,-0.125 -0.1478,-0.224 -0.2724,-0.2733 L 19.14,10.8624 c -0.408,-0.1615 -0.408,-0.7412 0,-0.90275 l 0.3979,-0.1575 c 0.1246,-0.04931 0.2232,-0.1483 0.2724,-0.27335 z"
       stroke="#1c274c"
       id="path4"
       style="fill:#ffffff" />
    <path
       d="m 5.1332,15.3072 c 0.16094,-0.4096 0.73847,-0.4096 0.89941,0 l 0.15692,0.3993 c 0.04914,0.1251 0.14776,0.2241 0.27235,0.2734 l 0.39787,0.1575 c 0.40808,0.1615 0.40808,0.7412 0,0.9027 L 6.46188,17.1976 C 6.33729,17.2469 6.23867,17.3459 6.18953,17.471 l -0.15692,0.3993 c -0.16094,0.4096 -0.73847,0.4096 -0.89941,0 L 4.97628,17.471 C 4.92714,17.3459 4.82852,17.2469 4.70393,17.1976 L 4.30606,17.0401 c -0.40808,-0.1615 -0.40808,-0.7412 0,-0.9027 l 0.39787,-0.1575 c 0.12459,-0.0493 0.22321,-0.1483 0.27235,-0.2734 z"
       stroke="#1c274c"
       id="path5"
       style="fill:#ffffff" />
  </g>
  <path
     d="m 20.077283,4.7421314 h 4.409722"
     stroke="#1c274c"
     stroke-width="0.826823"
     stroke-linecap="round"
     id="path2-2" />
  <path
     d="m 20.077283,6.6713844 h 3.031684"
     stroke="#1c274c"
     stroke-width="0.826823"
     stroke-linecap="round"
     id="path3-9" />
  <g
     id="g22"
     transform="translate(-3.3618611,-4.2735803)"
     style="stroke:#000000">
    <g
       id="g2"
       transform="matrix(0.55121525,0,0,0.55121525,31.200255,5.1131076)"
       style="stroke:#000000">
      <path
         d="M 9,11.08 11,13 15,9"
         stroke="#1c274c"
         stroke-width="1.5"
         stroke-linecap="round"
         stroke-linejoin="round"
         id="path2-8"
         style="fill:none;stroke:#000000" />
    </g>
    <path
       style="fill:none;stroke:#000000;stroke-width:0.681622;stroke-linecap:round;stroke-linejoin:round;paint-order:fill stroke markers"
       id="rect14"
       width="11.024305"
       height="9.3498751"
       x="32.302683"
       y="6.2316371"
       inkscape:path-effect="#path-effect1"
       sodipodi:type="rect"
       d="m 34.960521,6.2018913 c -1.410529,0.0039 -2.681945,1.2808513 -2.681266,2.6875506 0,1e-7 0,2e-7 0,3e-7 0.002,1.3447548 0.0041,2.6895098 0.0061,4.0342648 l 0,0 c 0.0024,1.04923 0.714817,2.022546 1.65917,2.446076 0.313716,0.178146 0.678324,0.480328 1.015961,0.798109 0,0 0,0 0,0 0.078,0.09014 0.148802,0.189201 0.210713,0.296014 0.09922,0.171175 0.175939,0.359387 0.26543,0.538116 0.0601,0.12003 0.12707,0.237311 0.215242,0.329038 0.08817,0.09173 0.20014,0.156565 0.316832,0.156565 0.116692,0 0.228661,-0.06484 0.316832,-0.156565 0.08817,-0.09173 0.15514,-0.209007 0.215238,-0.329038 0.08949,-0.178738 0.166211,-0.366961 0.26543,-0.538146 0.286593,-0.494466 0.763659,-0.822736 1.264046,-0.869794 l 2.638932,2e-6 c 1.400112,-7.65e-4 2.669612,-1.270262 2.670379,-2.670376 0,0 0,0 0,-10e-7 10e-7,-1.344755 2e-6,-2.68951 3e-6,-4.0342651 0,-2e-7 0,-4e-7 -10e-7,-7e-7 C 43.338799,7.4893259 42.0693,6.2198244 40.669183,6.2190575 38.766296,6.2133354 36.863408,6.2076133 34.960521,6.2018913 Z"
       ry="2.6578048"
       rx="2.6578048" />
  </g>
  <path
     style="display:none;fill:none;stroke:#000080;stroke-width:1.23658;stroke-linecap:round;stroke-linejoin:round;stroke-opacity:1;paint-order:fill stroke markers"
     d="m 71.042295,19.020709 -23.151896,-0.02918 c -1.021968,0.0801 -1.996305,0.638797 -2.581649,1.480348 -0.202638,0.291333 -0.359327,0.611661 -0.5421,0.91585 -0.122746,0.204286 -0.25952,0.403894 -0.439597,0.560007 -0.180076,0.156114 -0.408756,0.266467 -0.647082,0.266467 -0.238325,0 -0.467004,-0.110352 -0.64708,-0.266465 -0.180076,-0.156114 -0.316849,-0.355722 -0.439591,-0.560009 -0.182776,-0.304205 -0.33946,-0.624551 -0.5421,-0.9159 -0.585322,-0.841559 -1.559657,-1.400261 -2.58162,-1.48035 l -42.3518732,2.2e-5"
     id="path17"
     inkscape:path-effect="#path-effect17"
     inkscape:original-d="m 71.042295,19.020709 c -1.68934,-0.02918 -23.151896,-0.02918 -23.151896,-0.02918 0,0 -1.875382,0.783767 -2.581649,1.480348 -0.252575,0.249111 -0.306184,0.650909 -0.5421,0.91585 -0.302639,0.339872 -0.631593,0.826475 -1.086679,0.826474 -0.455084,-10e-7 -0.784038,-0.486599 -1.086671,-0.826474 -0.235923,-0.264955 -0.289519,-0.666775 -0.5421,-0.9159 -0.706251,-0.696586 -2.58162,-1.48035 -2.58162,-1.48035 l -42.3518732,2.2e-5"
     sodipodi:nodetypes="ccaaaaacc"
     transform="matrix(0.55121525,0,0,0.55121525,-3.768614,-25.321132)" />
  <path
     style="display:none;fill:none;stroke:#000080;stroke-width:1.23658;stroke-linecap:round;stroke-linejoin:round;stroke-opacity:1;paint-order:fill stroke markers"
     d="m 71.042295,19.020709 -26.991896,-0.02918 c -1.021968,0.0801 -1.996305,0.638797 -2.581649,1.480348 -0.202638,0.291333 -0.359327,0.611661 -0.5421,0.91585 -0.122746,0.204286 -0.25952,0.403894 -0.439597,0.560007 -0.180076,0.156114 -0.408756,0.266467 -0.647082,0.266467 -0.238325,0 -0.467004,-0.110352 -0.64708,-0.266465 -0.180076,-0.156114 -0.316849,-0.355722 -0.439591,-0.560009 -0.182776,-0.304205 -0.33946,-0.624551 -0.5421,-0.9159 -0.585322,-0.841559 -1.559657,-1.400261 -2.58162,-1.48035 l -38.5118732,2.2e-5"
     id="path7"
     inkscape:path-effect="#path-effect8"
     inkscape:original-d="m 71.042295,19.020709 c -1.68934,-0.02918 -26.991896,-0.02918 -26.991896,-0.02918 0,0 -1.875382,0.783767 -2.581649,1.480348 -0.252575,0.249111 -0.306183,0.650909 -0.5421,0.91585 -0.302639,0.339872 -0.631593,0.826475 -1.086679,0.826474 -0.455084,-10e-7 -0.784038,-0.486599 -1.086671,-0.826474 -0.235922,-0.264955 -0.289518,-0.666775 -0.5421,-0.9159 -0.706251,-0.696586 -2.58162,-1.48035 -2.58162,-1.48035 l -38.5118732,2.2e-5"
     sodipodi:nodetypes="ccaaaaacc"
     transform="matrix(0.55121525,0,0,0.55121525,-3.768614,-28.496134)" />
  <path
     style="display:none;fill:none;stroke:#000080;stroke-width:1.23658;stroke-linecap:round;stroke-linejoin:round;stroke-opacity:1;paint-order:fill stroke markers"
     d="m 71.042295,19.020709 -30.831896,-0.02918 c -1.021968,0.0801 -1.996305,0.638797 -2.581649,1.480348 -0.202638,0.291333 -0.359327,0.611661 -0.5421,0.91585 -0.122746,0.204286 -0.25952,0.403894 -0.439597,0.560007 -0.180076,0.156114 -0.408756,0.266467 -0.647082,0.266467 -0.238325,0 -0.467004,-0.110352 -0.64708,-0.266465 -0.180076,-0.156114 -0.316849,-0.355722 -0.439591,-0.560009 -0.182776,-0.304205 -0.33946,-0.624551 -0.5421,-0.9159 -0.585322,-0.841559 -1.559657,-1.400261 -2.58162,-1.48035 l -34.6718732,2.2e-5"
     id="path8"
     inkscape:path-effect="#path-effect10"
     inkscape:original-d="m 71.042295,19.020709 c -1.68934,-0.02918 -30.831896,-0.02918 -30.831896,-0.02918 0,0 -1.875382,0.783767 -2.581649,1.480348 -0.252575,0.249111 -0.306183,0.650909 -0.5421,0.91585 -0.302639,0.339872 -0.631593,0.826475 -1.086679,0.826474 -0.455084,-10e-7 -0.784038,-0.486599 -1.086671,-0.826474 -0.235922,-0.264955 -0.289518,-0.666775 -0.5421,-0.9159 -0.706251,-0.696586 -2.58162,-1.48035 -2.58162,-1.48035 l -34.6718732,2.2e-5"
     sodipodi:nodetypes="ccaaaaacc"
     transform="matrix(0.55121525,0,0,0.55121525,-3.768614,-31.671136)" />
  <path
     style="display:none;fill:none;stroke:#000080;stroke-width:1.23658;stroke-linecap:round;stroke-linejoin:round;stroke-opacity:1;paint-order:fill stroke markers"
     d="m 71.042295,19.020709 -26.991896,-0.02918 c -1.021968,0.0801 -1.996305,0.638797 -2.581649,1.480348 -0.202638,0.291333 -0.359327,0.611661 -0.5421,0.91585 -0.122746,0.204286 -0.25952,0.403894 -0.439597,0.560007 -0.180076,0.156114 -0.408756,0.266467 -0.647082,0.266467 -0.238325,0 -0.467004,-0.110352 -0.64708,-0.266465 -0.180076,-0.156114 -0.316849,-0.355722 -0.439591,-0.560009 -0.182776,-0.304205 -0.33946,-0.624551 -0.5421,-0.9159 -0.585322,-0.841559 -1.559657,-1.400261 -2.58162,-1.48035 l -38.5118732,2.2e-5"
     id="path12"
     inkscape:path-effect="#path-effect16"
     inkscape:original-d="m 71.042295,19.020709 c -1.68934,-0.02918 -26.991896,-0.02918 -26.991896,-0.02918 0,0 -1.875382,0.783767 -2.581649,1.480348 -0.252575,0.249111 -0.306183,0.650909 -0.5421,0.91585 -0.302639,0.339872 -0.631593,0.826475 -1.086679,0.826474 -0.455084,-10e-7 -0.784038,-0.486599 -1.086671,-0.826474 -0.235922,-0.264955 -0.289518,-0.666775 -0.5421,-0.9159 -0.706251,-0.696586 -2.58162,-1.48035 -2.58162,-1.48035 l -38.5118732,2.2e-5"
     sodipodi:nodetypes="ccaaaaacc"
     transform="matrix(0.55121525,0,0,0.55121525,-3.768614,-34.846138)" />
  <g
     id="g21"
     transform="translate(-3.3618611,-4.2735803)"
     style="stroke:#000000">
    <g
       id="g4"
       transform="matrix(0.55121525,0,0,0.55121525,6.8585808,5.1131076)"
       style="stroke:#000000">
      <path
         d="m 15.5,7.83008 0.1716,0.17157 c 1.3333,1.33333 2,2.00005 2,2.82845 0,0.8284 -0.6667,1.4951 -2,2.8284 L 15.5,13.8301"
         stroke="#1c274c"
         stroke-width="1.5"
         stroke-linecap="round"
         id="path2-9"
         style="fill:none;stroke:#000000" />
      <path
         d="m 13.2939,6 -1.2941,4.8296 -1.294,4.8297"
         stroke="#1c274c"
         stroke-width="1.5"
         stroke-linecap="round"
         id="path3-3"
         style="stroke:#000000" />
      <path
         d="M 8.50019,7.83008 8.32861,8.00165 c -1.33333,1.33333 -2,2.00005 -2,2.82845 0,0.8284 0.66667,1.4951 2,2.8284 l 0.17158,0.1716"
         stroke="#1c274c"
         stroke-width="1.5"
         stroke-linecap="round"
         id="path4-6"
         style="fill:none;stroke:#000000" />
    </g>
    <path
       style="fill:none;stroke:#000000;stroke-width:0.681622;stroke-linecap:round;stroke-linejoin:round;paint-order:fill stroke markers"
       id="path19"
       width="11.024305"
       height="9.3498751"
       x="32.302683"
       y="6.2316371"
       inkscape:path-effect="#path-effect21"
       sodipodi:type="rect"
       d="m 34.960521,6.2018913 c -1.410529,0.00337 -2.682898,1.2798979 -2.682839,2.6875506 0.0015,1.3447551 0.0031,2.6895101 0.0046,4.0342651 0.0028,1.404866 1.276232,2.674107 2.678224,2.67348 0,0 10e-7,0 10e-7,0 l 2.707034,-0.0031 c 0.500389,0.04706 0.977457,0.375331 1.26406,0.869793 0.09922,0.171175 0.175939,0.359387 0.26543,0.538116 0.0601,0.12003 0.12707,0.237311 0.215241,0.329038 0.08817,0.09173 0.200141,0.156565 0.316833,0.156565 0.116692,0 0.228661,-0.06484 0.316832,-0.156565 0.08817,-0.09173 0.15514,-0.209007 0.215238,-0.329038 0.08949,-0.178738 0.166211,-0.366961 0.26543,-0.538146 0.04337,-0.07482 0.09109,-0.14583 0.142597,-0.21264 0,0 0,0 0,0 0.349717,-0.359203 0.750508,-0.713499 1.077326,-0.910048 0.912949,-0.438878 1.592491,-1.393229 1.593052,-2.417481 10e-7,-1.344755 2e-6,-2.68951 3e-6,-4.0342647 l 0,-4e-7 C 43.338799,7.4893277 42.0693,6.2198258 40.669184,6.2190583 c 0,3e-7 -1e-6,2e-7 -1e-6,0 -1.902887,-0.00572 -3.805775,-0.011445 -5.708662,-0.017167 z"
       ry="2.6578048"
       rx="2.6578048"
       transform="translate(-24.341676)" />
  </g>
  <path
     style="fill:none;stroke:#000000;stroke-width:0.681622;stroke-linecap:round;stroke-linejoin:round;paint-order:fill stroke markers"
     id="path16"
     width="11.024305"
     height="9.3498751"
     x="32.302683"
     y="6.2316371"
     inkscape:path-effect="#path-effect19"
     sodipodi:type="rect"
     d="m 34.960521,6.2018913 c -1.410529,0.0036 -2.68249,1.2803067 -2.682164,2.6875506 0.0017,1.3447551 0.0035,2.6895101 0.0052,4.0342651 l 0,0 c 0.003,1.404063 1.276118,2.672452 2.676897,2.671479 10e-7,-10e-7 10e-7,0 10e-7,0 l 0.826844,-0.0011 c 0.500389,0.04706 0.977456,0.375331 1.26406,0.869793 0.09922,0.171175 0.175938,0.359387 0.26543,0.538116 0.0601,0.12003 0.12707,0.237311 0.215241,0.329038 0.08817,0.09173 0.200141,0.156565 0.316833,0.156565 0.116691,0 0.22866,-0.06484 0.316831,-0.156565 0.08817,-0.09173 0.15514,-0.209007 0.215239,-0.329038 0.08949,-0.178738 0.166211,-0.366961 0.26543,-0.538146 0.286593,-0.494466 0.763659,-0.822736 1.264046,-0.869794 l 0.758741,10e-7 c 1.400112,-7.65e-4 2.669612,-1.270262 2.670379,-2.670375 -10e-7,0 0,-10e-7 0,-10e-7 10e-7,-1.344755 10e-7,-2.68951 2e-6,-4.0342651 C 43.3388,7.4893269 42.0693,6.2198248 40.669183,6.2190578 38.766296,6.2133357 36.863408,6.2076135 34.960521,6.2018913 Z"
     ry="2.6578048"
     rx="2.6578048"
     transform="translate(-15.532694,-5.3319136)" />
  <g
     id="g123"
     transform="translate(-7.8868902,-4.1204134)">
    <rect
       style="fill:none;stroke:#000000;stroke-width:0.876349;stroke-linecap:round;stroke-linejoin:round;paint-order:fill stroke markers"
       id="rect22"
       width="12.278795"
       height="12.278795"
       x="67.006278"
       y="21.758486"
       rx="1.2454728"
       ry="1.2454728" />
    <rect
       style="fill:none;stroke:#000000;stroke-width:0.876348;stroke-linecap:round;stroke-linejoin:round;paint-order:fill stroke markers"
       id="rect23"
       width="7.7541"
       height="7.7541001"
       x="69.191528"
       y="24.097922" />
    <path
       id="path105"
       style="fill:#000000;stroke:#000000;stroke-width:0.806516;stroke-linecap:round;stroke-linejoin:round;stroke-opacity:1;paint-order:fill stroke markers"
       d="m 63.620404,19.814811 v 1.820561 z m 1.5875,0 v 1.820561 z m 1.5875,0 v 1.820561 z m 1.5875,0 v 1.820561 z m 1.5875,0 v 1.820561 z m 1.5875,0 v 1.820561 z m 1.5875,0 v 1.820561 z"
       sodipodi:nodetypes="ccccccccccccccccccccc"
       inkscape:transform-center-x="0.0002698"
       inkscape:transform-center-y="-7.172792"
       transform="translate(4.7625017)" />
    <rect
       style="fill:#000000;stroke:#000000;stroke-width:0.806516;stroke-linecap:round;stroke-linejoin:round;paint-order:fill stroke markers"
       id="rect107"
       width="1.847012"
       height="1.8979099"
       x="70.84351"
       y="25.881084" />
    <ellipse
       style="fill:#000000;stroke:#000000;stroke-width:0.806517;stroke-linecap:round;stroke-linejoin:round;paint-order:fill stroke markers"
       id="path107"
       cx="74.72185"
       cy="26.344661"
       rx="0.50620603"
       ry="0.42913117" />
    <rect
       style="fill:#000000;stroke:#000000;stroke-width:0.806516;stroke-linecap:round;stroke-linejoin:round;paint-order:fill stroke markers"
       id="rect108"
       width="4.384546"
       height="0.90088412"
       x="70.84351"
       y="29.233566" />
    <path
       id="path121"
       style="fill:#000000;stroke:#000000;stroke-width:0.806516;stroke-linecap:round;stroke-linejoin:round;stroke-opacity:1;paint-order:fill stroke markers"
       d="m 81.228749,23.135114 h -1.820562 z m -2e-6,1.5875 h -1.820561 z m 0,1.5875 -1.820561,-10e-7 z m 2e-6,1.587499 -1.820561,1e-6 z m 0,1.587501 h -1.820562 z m -3e-6,1.5875 -1.82056,-1e-6 z m 10e-7,1.5875 h -1.820561 z"
       sodipodi:nodetypes="ccccccccccccccccccccc"
       inkscape:transform-center-x="-7.172792"
       inkscape:transform-center-y="-0.0002695" />
    <path
       id="path122"
       style="fill:#000000;stroke:#000000;stroke-width:0.806516;stroke-linecap:round;stroke-linejoin:round;stroke-opacity:1;paint-order:fill stroke markers"
       d="m 77.908444,35.980957 10e-7,-1.820561 z m -1.5875,-3e-6 10e-7,-1.82056 z m -1.5875,1e-6 3e-6,-1.82056 z m -1.587497,2e-6 -3e-6,-1.82056 z m -1.587502,1e-6 v -1.820562 z m -1.587501,-4e-6 2e-6,-1.82056 z m -1.5875,1e-6 10e-7,-1.820562 z"
       sodipodi:nodetypes="ccccccccccccccccccccc"
       inkscape:transform-center-x="-0.000269"
       inkscape:transform-center-y="7.172792" />
    <path
       id="path123"
       style="fill:#000000;stroke:#000000;stroke-width:0.806516;stroke-linecap:round;stroke-linejoin:round;stroke-opacity:1;paint-order:fill stroke markers"
       d="m 65.062601,32.660652 1.82056,2e-6 z m 5e-6,-1.5875 1.820559,1e-6 z m -3e-6,-1.5875 1.820561,3e-6 z m 0,-1.587497 1.820557,-3e-6 z m -3e-6,-1.587502 h 1.820562 z m 5e-6,-1.587502 1.82056,3e-6 z m -2e-6,-1.587499 h 1.820563 z"
       sodipodi:nodetypes="ccccccccccccccccccccc"
       inkscape:transform-center-x="7.1727925"
       inkscape:transform-center-y="0.0002695" />
  </g>
  <text
     xml:space="preserve"
     style="font-style:normal;font-variant:normal;font-weight:500;font-stretch:normal;font-size:4.9389px;line-height:1.25;font-family:HabsburgChancery;-inkscape-font-specification:'HabsburgChancery Medium';white-space:pre;inline-size:35.3689;fill:#000000;stroke:none;stroke-width:0.556639;stroke-linecap:round;stroke-linejoin:round;paint-order:fill stroke markers"
     x="0.36285728"
     y="-11.259728"
     id="text124"
     transform="matrix(1.4489012,0,0,1.4489012,29.749492,3.9586747)"><tspan
       x="0.36285728"
       y="-11.259728"
       id="tspan2"><tspan
         dx="0 0 0 0 1.7829437 -1.7829437"
         style="font-weight:900;font-family:'Mona Sans';-inkscape-font-specification:'Mona Sans, Heavy'"
         id="tspan1">distillembed</tspan></tspan></text>
  <text
     xml:space="preserve"
     style="font-style:normal;font-variant:normal;font-weight:normal;font-stretch:normal;font-size:7.15606px;line-height:1.25;font-family:'Mona Sans';-inkscape-font-specification:'Mona Sans, Normal';font-variant-ligatures:normal;font-variant-caps:normal;font-variant-numeric:normal;font-variant-east-asian:normal;fill:#000000;stroke-width:0.806516;stroke-linecap:round;stroke-linejoin:round;paint-order:fill stroke markers"
     x="-0.47945199"
     y="-12.477182"
     id="text12"><tspan
       sodipodi:role="line"
       id="tspan12"
       style="font-style:normal;font-variant:normal;font-weight:normal;font-stretch:normal;font-size:7.15606px;font-family:'Mona Sans';-inkscape-font-specification:'Mona Sans, Normal';font-variant-ligatures:normal;font-variant-caps:normal;font-variant-numeric:normal;font-variant-east-asian:normal;stroke-width:0.806516"
       x="-0.47945199"
       y="-12.477182">un1tz3r0/</tspan></text>
  <text
     xml:space="preserve"
     style="font-style:normal;font-variant:normal;font-weight:300;font-stretch:normal;font-size:3.52778px;line-height:1.25;font-family:'Mona Sans';-inkscape-font-specification:'Mona Sans, Light @wdth=100,wght=300';font-variant-ligatures:normal;font-variant-caps:normal;font-variant-numeric:normal;font-variant-east-asian:normal;font-variation-settings:'wdth' 100;fill:#000000;stroke-width:0.806516;stroke-linecap:round;stroke-linejoin:round;paint-order:fill stroke markers"
     x="0"
     y="-8.1124269"
     id="text13"><tspan
       sodipodi:role="line"
       id="tspan13"
       style="font-size:3.52778px;stroke-width:0.806516"
       x="0"
       y="-8.1124269">application-specific microcontroller-sized flash-only</tspan><tspan
       sodipodi:role="line"
       style="font-size:3.52778px;stroke-width:0.806516"
       x="0"
       y="-3.7027019"
       id="tspan14">text embeddings from SOTA pre-trained models</tspan></text>
</svg>
